/* XPM */
static char * gridMedium2_xpm[] = {
"24 24 2 1",
" 	c None",
".	c #000000",
"                        ",
" ...................... ",
" ...................... ",
" ..     ..    ..     .. ",
" ..     ..    ..     .. ",
" ..     ..    ..     .. ",
" ..     ..    ..     .. ",
" ..     ..    ..     .. ",
" ...................... ",
" ...................... ",
" ..     ..    ..     .. ",
" ..     ..    ..     .. ",
" ..     ..    ..     .. ",
" ..     ..    ..     .. ",
" ...................... ",
" ...................... ",
" ..     ..    ..     .. ",
" ..     ..    ..     .. ",
" ..     ..    ..     .. ",
" ..     ..    ..     .. ",
" ..     ..    ..     .. ",
" ...................... ",
" ...................... ",
"                        "};
