/* XPM */
static char * minusZ_xpm[] = {
"24 24 60 1",
" 	c None",
".	c #FFFFFF",
"+	c #FAFAFA",
"@	c #F2F2F2",
"#	c #CFCFCF",
"$	c #FCFCFC",
"%	c #9D9D9D",
"&	c #838383",
"*	c #070707",
"=	c #F8F8F8",
"-	c #B2B2B2",
";	c #4E4E4E",
">	c #333333",
",	c #000000",
"'	c #060606",
")	c #C6C6C6",
"!	c #AFAFAF",
"~	c #5C5C5C",
"{	c #313131",
"]	c #1E1E1E",
"^	c #282828",
"/	c #C8C8C8",
"(	c #FEFEFE",
"_	c #CDCDCD",
":	c #4A4A4A",
"<	c #171717",
"[	c #0A0A0A",
"}	c #7F7F7F",
"|	c #F7F7F7",
"1	c #E1E1E1",
"2	c #BABABA",
"3	c #B8B8B8",
"4	c #818181",
"5	c #131313",
"6	c #8D8D8D",
"7	c #CACACA",
"8	c #4C4C4C",
"9	c #414141",
"0	c #D1D1D1",
"a	c #CBCBCB",
"b	c #161616",
"c	c #262626",
"d	c #5D5D5D",
"e	c #EEEEEE",
"f	c #1D1D1D",
"g	c #959595",
"h	c #868686",
"i	c #2C2C2C",
"j	c #ACACAC",
"k	c #F4F4F4",
"l	c #373737",
"m	c #D7D7D7",
"n	c #F6F6F6",
"o	c #8C8C8C",
"p	c #696969",
"q	c #E8E8E8",
"r	c #E4E4E4",
"s	c #EAEAEA",
"t	c #878787",
"u	c #555555",
"        ........        ",
"       ..........       ",
"      .........+@#      ",
"     .........$%&*=     ",
"    ........-;>,'=..    ",
"   .....)!~{],,,^/(..   ",
"  ....._:^<,,,,[}|....  ",
" ......12345,,,,6=..    ",
"........(78,,,,90..    .",
"........a8,,bc,de.      ",
".......a8,,fghij.       ",
"......a8,,fgk6lm. .     ",
".....a8,,fg|nopq.       ",
"....a8,,fg|..rs..       ",
"...a8,,fg|.......     ..",
"..a8,,fg|.........  ,,,.",
".a8,,fg|..........  ..,.",
" t,,fg|..............,, ",
"  ufg|..........,,,.,,  ",
"   3|...............,   ",
"    ................,,, ",
"     ..............     ",
"      ............      ",
"       ..........       "};
