/* XPM */
static char * plusZ_xpm[] = {
"24 24 60 1",
" 	c None",
".	c #FFFFFF",
"+	c #CBCBCB",
"@	c #878787",
"#	c #4C4C4C",
"$	c #000000",
"%	c #555555",
"&	c #1D1D1D",
"*	c #B8B8B8",
"=	c #959595",
"-	c #F7F7F7",
";	c #CDCDCD",
">	c #E1E1E1",
",	c #C6C6C6",
"'	c #4A4A4A",
")	c #BABABA",
"!	c #FEFEFE",
"~	c #AFAFAF",
"{	c #282828",
"]	c #CACACA",
"^	c #5C5C5C",
"/	c #171717",
"(	c #818181",
"_	c #313131",
":	c #131313",
"<	c #B2B2B2",
"[	c #1E1E1E",
"}	c #161616",
"|	c #F4F4F4",
"1	c #F6F6F6",
"2	c #4E4E4E",
"3	c #262626",
"4	c #868686",
"5	c #8D8D8D",
"6	c #8C8C8C",
"7	c #E4E4E4",
"8	c #FCFCFC",
"9	c #333333",
"0	c #2C2C2C",
"a	c #373737",
"b	c #696969",
"c	c #EAEAEA",
"d	c #FAFAFA",
"e	c #9D9D9D",
"f	c #0A0A0A",
"g	c #414141",
"h	c #5D5D5D",
"i	c #ACACAC",
"j	c #D7D7D7",
"k	c #E8E8E8",
"l	c #F2F2F2",
"m	c #838383",
"n	c #060606",
"o	c #7F7F7F",
"p	c #D1D1D1",
"q	c #EEEEEE",
"r	c #CFCFCF",
"s	c #070707",
"t	c #F8F8F8",
"u	c #C8C8C8",
"        .........       ",
"       .........+@      ",
"      .........+#$%     ",
"     .........+#$$&*    ",
"    .........+#$$&=-.   ",
"   .........+#$$&=-...  ",
"  .........+#$$&=-..... ",
" .....;>..+#$$&=-.......",
".....,')!+#$$&=-........",
".....~{*]#$$&=-.........",
".....^/(#$$&=-..........",
"....._$:$$&=-...........",
"....<[$$$}=|1...........",
"....2$$$$34567..........",
"...89$$$$$0abc..........",
"..de$$f$ghijk..... .$$$.",
" .lmn{o5pq.......  ...$.",
"  rstu-t..     ..$ ..$$ ",
"   t.!...  .    $$$.$$  ",
"    ....         $ .$   ",
"     ..         ..  $$$ ",
"      .                 ",
"              .         ",
"        .     ...       "};
